<svg version="1.1" xmlns="http://www.w3.org/2000/svg" xmlns:xlink="http://www.w3.org/1999/xlink" width="37" height="36"><defs/><g><path fill="rgb(241,251,255)" stroke="none" paint-order="stroke fill markers" fill-rule="evenodd" d=" M 14.377971649169922 5.23916482925415 C 19.026180267333984 5.23916482925415 22.807689666748047 9.039318561553955 22.807689666748047 13.71065378189087 C 22.807689666748047 15.469706058502197 22.267242431640625 17.1636700630188 21.244808197021484 18.60729455947876 C 21.244808197021484 18.60729455947876 20.41558837890625 19.77846622467041 20.41558837890625 19.77846622467041 C 20.41558837890625 19.77846622467041 19.250198364257812 20.611679553985596 19.250198364257812 20.611679553985596 C 17.813201904296875 21.639740467071533 16.128536224365234 22.182559967041016 14.377971649169922 22.182559967041016 C 9.72995376586914 22.182559967041016 5.948444366455078 18.38240623474121 5.948444366455078 13.71065378189087 C 5.948444366455078 9.039318561553955 9.72995376586914 5.23916482925415 14.377971649169922 5.23916482925415 C 19.026180267333984 5.23916482925415 14.377971649169922 5.23916482925415 14.377971649169922 5.23916482925415 M 14.377971649169922 1.0030031204223633 C 7.394691467285156 1.0030031204223633 1.7335853576660156 6.692802906036377 1.7335853576660156 13.71065378189087 C 1.7335853576660156 20.729339122772217 7.394691467285156 26.418304443359375 14.377971649169922 26.418304443359375 C 17.107196807861328 26.418304443359375 19.627471923828125 25.540447235107422 21.693798065185547 24.063444137573242 C 21.693798065185547 24.063444137573242 31.848426818847656 34.2685341835022 31.848426818847656 34.2685341835022 C 32.26070022583008 34.68368053436279 32.80095672607422 34.89062786102295 33.34111785888672 34.89062786102295 C 33.88137435913086 34.89062786102295 34.421630859375 34.68368053436279 34.83380889892578 34.2685341835022 C 35.658260345458984 33.44074487686157 35.658260345458984 32.097673416137695 34.83380889892578 31.269049644470215 C 34.83380889892578 31.269049644470215 24.67908477783203 21.063542366027832 24.67908477783203 21.063542366027832 C 26.149269104003906 18.98655891418457 27.02254867553711 16.453540325164795 27.02254867553711 13.71065378189087 C 27.02254867553711 6.692802906036377 21.361347198486328 1.0030031204223633 14.377971649169922 1.0030031204223633 C 14.377971649169922 1.0030031204223633 14.377971649169922 1.0030031204223633 14.377971649169922 1.0030031204223633 Z"/></g></svg>