<svg version="1.1" xmlns="http://www.w3.org/2000/svg" xmlns:xlink="http://www.w3.org/1999/xlink" width="32" height="36"><defs/><g><path fill="rgb(255,255,255)" stroke="none" paint-order="stroke fill markers" fill-rule="evenodd" d=" M 16.19631576538086 5.344724655151367 C 22.021644592285156 5.344724655151367 26.760929107666016 10.09533405303955 26.760929107666016 15.934920310974121 C 26.760929107666016 21.774089336395264 22.021644592285156 26.524698734283447 16.22683334350586 26.525115966796875 C 16.22683334350586 26.525115966796875 16.100662231445312 26.51677131652832 16.100662231445312 26.51677131652832 C 15.984504699707031 26.50926113128662 15.86825180053711 26.501750946044922 15.751045227050781 26.49632692337036 C 15.751045227050781 26.49632692337036 15.039508819580078 26.46712064743042 15.039508819580078 26.46712064743042 C 15.039508819580078 26.46712064743042 14.357154846191406 26.671147346496582 14.357154846191406 26.671147346496582 C 14.357154846191406 26.671147346496582 7.272022247314453 28.79319190979004 7.272022247314453 28.79319190979004 C 7.272022247314453 28.79319190979004 8.13214111328125 25.40109157562256 8.13214111328125 25.40109157562256 C 8.13214111328125 25.40109157562256 8.604972839355469 23.536062240600586 8.604972839355469 23.536062240600586 C 8.604972839355469 23.536062240600586 7.510536193847656 21.952247619628906 7.510536193847656 21.952247619628906 C 6.281440734863281 20.175254344940186 5.631702423095703 18.09368133544922 5.631702423095703 15.934920310974121 C 5.631702423095703 10.09533405303955 10.370986938476562 5.344724655151367 16.19631576538086 5.344724655151367 C 22.021644592285156 5.344724655151367 16.19631576538086 5.344724655151367 16.19631576538086 5.344724655151367 M 16.19631576538086 1.1089801788330078 C 8.020370483398438 1.1089801788330078 1.3926200866699219 7.747149467468262 1.3926200866699219 15.934920310974121 C 1.3926200866699219 19.066667556762695 2.367847442626953 21.967267990112305 4.02294921875 24.360930919647217 C 4.02294921875 24.360930919647217 1.3265304565429688 34.996187686920166 1.3265304565429688 34.996187686920166 C 1.3265304565429688 34.996187686920166 15.574329376220703 30.729150772094727 15.574329376220703 30.729150772094727 C 15.782230377197266 30.73749542236328 15.986221313476562 30.760443210601807 16.19631576538086 30.760443210601807 C 24.37216567993164 30.760443210601807 30.999916076660156 24.123108386993408 30.999916076660156 15.934920310974121 C 30.999916076660156 7.747149467468262 24.37216567993164 1.1089801788330078 16.19631576538086 1.1089801788330078 C 16.19631576538086 1.1089801788330078 16.19631576538086 1.1089801788330078 16.19631576538086 1.1089801788330078 Z"/></g></svg>