<svg version="1.1" xmlns="http://www.w3.org/2000/svg" xmlns:xlink="http://www.w3.org/1999/xlink" width="73" height="71"><defs/><g><path fill="rgb(255,255,255)" stroke="none" paint-order="stroke fill markers" fill-rule="evenodd" d=" M 54.45756530761719 11.36586046218872 C 54.45756530761719 11.36586046218872 60.61982727050781 17.528801918029785 60.61982727050781 17.528801918029785 C 60.61982727050781 17.528801918029785 34.9775276184082 44.123202323913574 34.9775276184082 44.123202323913574 C 34.9775276184082 44.123202323913574 27.863021850585938 44.123202323913574 27.863021850585938 44.123202323913574 C 27.863021850585938 44.123202323913574 27.863021850585938 37.00813627243042 27.863021850585938 37.00813627243042 C 27.863021850585938 37.00813627243042 54.45756530761719 11.36586046218872 54.45756530761719 11.36586046218872 C 54.45756530761719 11.36586046218872 54.45756530761719 11.36586046218872 54.45756530761719 11.36586046218872 M 54.51259231567383 1.007646083831787 C 53.41157531738281 1.007646083831787 52.31084442138672 1.4265475273132324 51.470943450927734 2.2664365768432617 C 51.470943450927734 2.2664365768432617 19.239994049072266 33.34358310699463 19.239994049072266 33.34358310699463 C 19.239994049072266 33.34358310699463 19.239994049072266 52.74572944641113 19.239994049072266 52.74572944641113 C 19.239994049072266 52.74572944641113 38.6417350769043 52.74572944641113 38.6417350769043 52.74572944641113 C 38.6417350769043 52.74572944641113 38.6417350769043 52.74572944641113 38.6417350769043 52.74572944641113 C 38.6417350769043 52.74572944641113 69.71854782104492 20.515769481658936 69.71854782104492 20.515769481658936 C 71.39834976196289 18.835991382598877 71.39834976196289 16.113131999969482 69.7187385559082 14.432519435882568 C 69.7187385559082 14.432519435882568 57.55405044555664 2.2668538093566895 57.55405044555664 2.2668538093566895 C 56.71443557739258 1.4265475273132324 55.61332321166992 1.007646083831787 54.51259231567383 1.007646083831787 C 54.51259231567383 1.007646083831787 54.51259231567383 1.007646083831787 54.51259231567383 1.007646083831787 Z M 62.355228424072266 59.21325063705444 C 62.355228424072266 60.404449462890625 61.39011001586914 61.3699254989624 60.19944763183594 61.3699254989624 C 60.19944763183594 61.3699254989624 12.772651672363281 61.3699254989624 12.772651672363281 61.3699254989624 C 11.582084655761719 61.3699254989624 10.616775512695312 60.404449462890625 10.616775512695312 59.21325063705444 C 10.616775512695312 59.21325063705444 10.616775512695312 11.78601360321045 10.616775512695312 11.78601360321045 C 10.616775512695312 10.594814777374268 11.582084655761719 9.630173206329346 12.772651672363281 9.630173206329346 C 12.772651672363281 9.630173206329346 23.55146026611328 9.630173206329346 23.55146026611328 9.630173206329346 C 25.932785034179688 9.630173206329346 27.863021850585938 7.699638366699219 27.863021850585938 5.318075180053711 C 27.863021850585938 5.318075180053711 27.863021850585938 5.318075180053711 27.863021850585938 5.318075180053711 C 27.863021850585938 2.9373464584350586 25.932785034179688 1.006394386291504 23.55146026611328 1.006394386291504 C 23.55146026611328 1.006394386291504 6.305309295654297 1.006394386291504 6.305309295654297 1.006394386291504 C 3.924175262451172 1.006394386291504 1.9938430786132812 2.9373464584350586 1.9938430786132812 5.318075180053711 C 1.9938430786132812 5.318075180053711 1.9938430786132812 65.68035459518433 1.9938430786132812 65.68035459518433 C 1.9938430786132812 68.06191778182983 3.924175262451172 69.99245262145996 6.305309295654297 69.99245262145996 C 6.305309295654297 69.99245262145996 66.66679000854492 69.99245262145996 66.66679000854492 69.99245262145996 C 69.04811477661133 69.99245262145996 70.97835159301758 68.06191778182983 70.97835159301758 65.68035459518433 C 70.97835159301758 65.68035459518433 70.97835159301758 48.4336314201355 70.97835159301758 48.4336314201355 C 70.97835159301758 46.0537371635437 69.04811477661133 44.123202323913574 66.66679000854492 44.123202323913574 C 66.66679000854492 44.123202323913574 66.66679000854492 44.123202323913574 66.66679000854492 44.123202323913574 C 64.28546524047852 44.123202323913574 62.355228424072266 46.0537371635437 62.355228424072266 48.4336314201355 C 62.355228424072266 48.4336314201355 62.355228424072266 59.21325063705444 62.355228424072266 59.21325063705444 Z"/></g></svg>