<svg version="1.1" xmlns="http://www.w3.org/2000/svg" xmlns:xlink="http://www.w3.org/1999/xlink" width="37" height="36"><defs/><g><path fill="rgb(255,255,255)" stroke="none" paint-order="stroke fill markers" fill-rule="evenodd" d=" M 27.51421356201172 6.091570854187012 C 27.51421356201172 6.091570854187012 30.544132232666016 9.11942720413208 30.544132232666016 9.11942720413208 C 30.544132232666016 9.11942720413208 17.93636703491211 22.182559967041016 17.93636703491211 22.182559967041016 C 17.93636703491211 22.182559967041016 14.438289642333984 22.182559967041016 14.438289642333984 22.182559967041016 C 14.438289642333984 22.182559967041016 14.438289642333984 18.687820434570312 14.438289642333984 18.687820434570312 C 14.438289642333984 18.687820434570312 27.51421356201172 6.091570854187012 27.51421356201172 6.091570854187012 C 27.51421356201172 6.091570854187012 27.51421356201172 6.091570854187012 27.51421356201172 6.091570854187012 M 27.541297912597656 1.003420352935791 C 26.99999237060547 1.003420352935791 26.458782196044922 1.2095332145690918 26.045841217041016 1.6213417053222656 C 26.045841217041016 1.6213417053222656 10.198539733886719 16.887879371643066 10.198539733886719 16.887879371643066 C 10.198539733886719 16.887879371643066 10.198539733886719 26.418304443359375 10.198539733886719 26.418304443359375 C 10.198539733886719 26.418304443359375 19.737953186035156 26.418304443359375 19.737953186035156 26.418304443359375 C 19.737953186035156 26.418304443359375 19.737953186035156 26.418304443359375 19.737953186035156 26.418304443359375 C 19.737953186035156 26.418304443359375 35.017723083496094 10.586416721343994 35.017723083496094 10.586416721343994 C 35.843605041503906 9.761130809783936 35.843605041503906 8.42348337173462 35.017818450927734 7.5981974601745605 C 35.017818450927734 7.5981974601745605 29.036754608154297 1.622176170349121 29.036754608154297 1.622176170349121 C 28.62390899658203 1.2095332145690918 28.082508087158203 1.003420352935791 27.541297912597656 1.003420352935791 C 27.541297912597656 1.003420352935791 27.541297912597656 1.003420352935791 27.541297912597656 1.003420352935791 Z M 31.397384643554688 29.595530033111572 C 31.397384643554688 30.180907249450684 30.922836303710938 30.65488338470459 30.33737564086914 30.65488338470459 C 30.33737564086914 30.65488338470459 7.018703460693359 30.65488338470459 7.018703460693359 30.65488338470459 C 6.433338165283203 30.65488338470459 5.958789825439453 30.180907249450684 5.958789825439453 29.595530033111572 C 5.958789825439453 29.595530033111572 5.958789825439453 6.2976837158203125 5.958789825439453 6.2976837158203125 C 5.958789825439453 5.713140964508057 6.433338165283203 5.23916482925415 7.018703460693359 5.23916482925415 C 7.018703460693359 5.23916482925415 12.318462371826172 5.23916482925415 12.318462371826172 5.23916482925415 C 13.489288330078125 5.23916482925415 14.438289642333984 4.29079532623291 14.438289642333984 3.1212925910949707 C 14.438289642333984 3.1212925910949707 14.438289642333984 3.1212925910949707 14.438289642333984 3.1212925910949707 C 14.438289642333984 1.9513726234436035 13.489288330078125 1.0030031204223633 12.318462371826172 1.0030031204223633 C 12.318462371826172 1.0030031204223633 3.8388671875 1.0030031204223633 3.8388671875 1.0030031204223633 C 2.6681365966796875 1.0030031204223633 1.7190399169921875 1.9513726234436035 1.7190399169921875 3.1212925910949707 C 1.7190399169921875 3.1212925910949707 1.7190399169921875 32.77233839035034 1.7190399169921875 32.77233839035034 C 1.7190399169921875 33.94184112548828 2.6681365966796875 34.89062786102295 3.8388671875 34.89062786102295 C 3.8388671875 34.89062786102295 33.5172119140625 34.89062786102295 33.5172119140625 34.89062786102295 C 34.68803787231445 34.89062786102295 35.63713455200195 33.94184112548828 35.63713455200195 32.77233839035034 C 35.63713455200195 32.77233839035034 35.63713455200195 24.300432205200195 35.63713455200195 24.300432205200195 C 35.63713455200195 23.131346702575684 34.68803787231445 22.182559967041016 33.5172119140625 22.182559967041016 C 33.5172119140625 22.182559967041016 33.5172119140625 22.182559967041016 33.5172119140625 22.182559967041016 C 32.34638595581055 22.182559967041016 31.397384643554688 23.131346702575684 31.397384643554688 24.300432205200195 C 31.397384643554688 24.300432205200195 31.397384643554688 29.595530033111572 31.397384643554688 29.595530033111572 Z"/></g></svg>