<svg version="1.1" xmlns="http://www.w3.org/2000/svg" xmlns:xlink="http://www.w3.org/1999/xlink" width="73" height="71"><defs/><g><path fill="rgb(255,255,255)" stroke="none" paint-order="stroke fill markers" fill-rule="evenodd" d=" M 54.4575080871582 11.36586046218872 C 54.4575080871582 11.36586046218872 60.61986541748047 17.528801918029785 60.61986541748047 17.528801918029785 C 60.61986541748047 17.528801918029785 34.97756576538086 44.123202323913574 34.97756576538086 44.123202323913574 C 34.97756576538086 44.123202323913574 27.863059997558594 44.123202323913574 27.863059997558594 44.123202323913574 C 27.863059997558594 44.123202323913574 27.863059997558594 37.00813627243042 27.863059997558594 37.00813627243042 C 27.863059997558594 37.00813627243042 54.4575080871582 11.36586046218872 54.4575080871582 11.36586046218872 C 54.4575080871582 11.36586046218872 54.4575080871582 11.36586046218872 54.4575080871582 11.36586046218872 M 54.512535095214844 1.007646083831787 C 53.41151809692383 1.007646083831787 52.310882568359375 1.4265475273132324 51.47098159790039 2.2664365768432617 C 51.47098159790039 2.2664365768432617 19.23993682861328 33.34358310699463 19.23993682861328 33.34358310699463 C 19.23993682861328 33.34358310699463 19.23993682861328 52.74572944641113 19.23993682861328 52.74572944641113 C 19.23993682861328 52.74572944641113 38.64177322387695 52.74572944641113 38.64177322387695 52.74572944641113 C 38.64177322387695 52.74572944641113 38.64177322387695 52.74572944641113 38.64177322387695 52.74572944641113 C 38.64177322387695 52.74572944641113 69.71849060058594 20.515769481658936 69.71849060058594 20.515769481658936 C 71.3982925415039 18.835991382598877 71.3982925415039 16.113131999969482 69.71868133544922 14.432519435882568 C 69.71868133544922 14.432519435882568 57.5540885925293 2.2668538093566895 57.5540885925293 2.2668538093566895 C 56.714473724365234 1.4265475273132324 55.61336135864258 1.007646083831787 54.512535095214844 1.007646083831787 C 54.512535095214844 1.007646083831787 54.512535095214844 1.007646083831787 54.512535095214844 1.007646083831787 Z M 62.35526657104492 59.21325063705444 C 62.35526657104492 60.404449462890625 61.390052795410156 61.3699254989624 60.199485778808594 61.3699254989624 C 60.199485778808594 61.3699254989624 12.772689819335938 61.3699254989624 12.772689819335938 61.3699254989624 C 11.582122802734375 61.3699254989624 10.616813659667969 60.404449462890625 10.616813659667969 59.21325063705444 C 10.616813659667969 59.21325063705444 10.616813659667969 11.78601360321045 10.616813659667969 11.78601360321045 C 10.616813659667969 10.594814777374268 11.582122802734375 9.630173206329346 12.772689819335938 9.630173206329346 C 12.772689819335938 9.630173206329346 23.551498413085938 9.630173206329346 23.551498413085938 9.630173206329346 C 25.932823181152344 9.630173206329346 27.863059997558594 7.699638366699219 27.863059997558594 5.318075180053711 C 27.863059997558594 5.318075180053711 27.863059997558594 5.318075180053711 27.863059997558594 5.318075180053711 C 27.863059997558594 2.9373464584350586 25.932823181152344 1.006394386291504 23.551498413085938 1.006394386291504 C 23.551498413085938 1.006394386291504 6.3052520751953125 1.006394386291504 6.3052520751953125 1.006394386291504 C 3.924213409423828 1.006394386291504 1.9938812255859375 2.9373464584350586 1.9938812255859375 5.318075180053711 C 1.9938812255859375 5.318075180053711 1.9938812255859375 65.68035459518433 1.9938812255859375 65.68035459518433 C 1.9938812255859375 68.06191778182983 3.924213409423828 69.99245262145996 6.3052520751953125 69.99245262145996 C 6.3052520751953125 69.99245262145996 66.66682815551758 69.99245262145996 66.66682815551758 69.99245262145996 C 69.04805755615234 69.99245262145996 70.9782943725586 68.06191778182983 70.9782943725586 65.68035459518433 C 70.9782943725586 65.68035459518433 70.9782943725586 48.4336314201355 70.9782943725586 48.4336314201355 C 70.9782943725586 46.0537371635437 69.04805755615234 44.123202323913574 66.66682815551758 44.123202323913574 C 66.66682815551758 44.123202323913574 66.66682815551758 44.123202323913574 66.66682815551758 44.123202323913574 C 64.28550338745117 44.123202323913574 62.35526657104492 46.0537371635437 62.35526657104492 48.4336314201355 C 62.35526657104492 48.4336314201355 62.35526657104492 59.21325063705444 62.35526657104492 59.21325063705444 Z"/></g></svg>