<svg version="1.1" xmlns="http://www.w3.org/2000/svg" xmlns:xlink="http://www.w3.org/1999/xlink" width="37" height="36"><defs/><g><path fill="rgb(255,255,255)" stroke="none" paint-order="stroke fill markers" fill-rule="evenodd" d=" M 26.80396270751953 6.091570854187012 C 26.80396270751953 6.091570854187012 29.833786010742188 9.11942720413208 29.833786010742188 9.11942720413208 C 29.833786010742188 9.11942720413208 17.226116180419922 22.182559967041016 17.226116180419922 22.182559967041016 C 17.226116180419922 22.182559967041016 13.728038787841797 22.182559967041016 13.728038787841797 22.182559967041016 C 13.728038787841797 22.182559967041016 13.728038787841797 18.687820434570312 13.728038787841797 18.687820434570312 C 13.728038787841797 18.687820434570312 26.80396270751953 6.091570854187012 26.80396270751953 6.091570854187012 C 26.80396270751953 6.091570854187012 26.80396270751953 6.091570854187012 26.80396270751953 6.091570854187012 M 26.830951690673828 1.003420352935791 C 26.28964614868164 1.003420352935791 25.748435974121094 1.2095332145690918 25.335494995117188 1.6213417053222656 C 25.335494995117188 1.6213417053222656 9.488288879394531 16.887879371643066 9.488288879394531 16.887879371643066 C 9.488288879394531 16.887879371643066 9.488288879394531 26.418304443359375 9.488288879394531 26.418304443359375 C 9.488288879394531 26.418304443359375 19.02770233154297 26.418304443359375 19.02770233154297 26.418304443359375 C 19.02770233154297 26.418304443359375 19.02770233154297 26.418304443359375 19.02770233154297 26.418304443359375 C 19.02770233154297 26.418304443359375 34.307376861572266 10.586416721343994 34.307376861572266 10.586416721343994 C 35.13335418701172 9.761130809783936 35.13335418701172 8.42348337173462 34.307472229003906 7.5981974601745605 C 34.307472229003906 7.5981974601745605 28.32640838623047 1.622176170349121 28.32640838623047 1.622176170349121 C 27.913658142089844 1.2095332145690918 27.372257232666016 1.003420352935791 26.830951690673828 1.003420352935791 C 26.830951690673828 1.003420352935791 26.830951690673828 1.003420352935791 26.830951690673828 1.003420352935791 Z M 30.68703842163086 29.595530033111572 C 30.68703842163086 30.180907249450684 30.21249008178711 30.65488338470459 29.627124786376953 30.65488338470459 C 29.627124786376953 30.65488338470459 6.308452606201172 30.65488338470459 6.308452606201172 30.65488338470459 C 5.723087310791016 30.65488338470459 5.248443603515625 30.180907249450684 5.248443603515625 29.595530033111572 C 5.248443603515625 29.595530033111572 5.248443603515625 6.2976837158203125 5.248443603515625 6.2976837158203125 C 5.248443603515625 5.713140964508057 5.723087310791016 5.23916482925415 6.308452606201172 5.23916482925415 C 6.308452606201172 5.23916482925415 11.608116149902344 5.23916482925415 11.608116149902344 5.23916482925415 C 12.778942108154297 5.23916482925415 13.728038787841797 4.29079532623291 13.728038787841797 3.1212925910949707 C 13.728038787841797 3.1212925910949707 13.728038787841797 3.1212925910949707 13.728038787841797 3.1212925910949707 C 13.728038787841797 1.9513726234436035 12.778942108154297 1.0030031204223633 11.608116149902344 1.0030031204223633 C 11.608116149902344 1.0030031204223633 3.128520965576172 1.0030031204223633 3.128520965576172 1.0030031204223633 C 1.9578857421875 1.0030031204223633 1.0087890625 1.9513726234436035 1.0087890625 3.1212925910949707 C 1.0087890625 3.1212925910949707 1.0087890625 32.77233839035034 1.0087890625 32.77233839035034 C 1.0087890625 33.94184112548828 1.9578857421875 34.89062786102295 3.128520965576172 34.89062786102295 C 3.128520965576172 34.89062786102295 32.80696105957031 34.89062786102295 32.80696105957031 34.89062786102295 C 33.977787017822266 34.89062786102295 34.926788330078125 33.94184112548828 34.926788330078125 32.77233839035034 C 34.926788330078125 32.77233839035034 34.926788330078125 24.300432205200195 34.926788330078125 24.300432205200195 C 34.926788330078125 23.131346702575684 33.977787017822266 22.182559967041016 32.80696105957031 22.182559967041016 C 32.80696105957031 22.182559967041016 32.80696105957031 22.182559967041016 32.80696105957031 22.182559967041016 C 31.63613510131836 22.182559967041016 30.68703842163086 23.131346702575684 30.68703842163086 24.300432205200195 C 30.68703842163086 24.300432205200195 30.68703842163086 29.595530033111572 30.68703842163086 29.595530033111572 Z"/></g></svg>